<?xml version="1.0" encoding="UTF-8"?>
<svg xmlns="http://www.w3.org/2000/svg" width="81.061" height="42.326" viewBox="0 0 81.061 42.326">
  <g id="logo" transform="translate(-120.27 -120.63)">
    <rect id="Rectangle_5" data-name="Rectangle 5" width="81.061" height="42.326" rx="5" transform="translate(120.27 120.63)" fill="#65b5e6"></rect>
    <g id="Groupe_7" data-name="Groupe 7" transform="translate(142.146 126.323)">
      <path id="Tracé_42" data-name="Tracé 42" d="M357.58,191.318a6.587,6.587,0,0,1-2.332-.387,4.814,4.814,0,0,1-1.741-1.1,4.728,4.728,0,0,1-1.089-1.731,6.532,6.532,0,0,1-.377-2.281,6.791,6.791,0,0,1,.4-2.343,5.564,5.564,0,0,1,1.151-1.914,5.375,5.375,0,0,1,1.833-1.283,6.092,6.092,0,0,1,2.445-.469,7.742,7.742,0,0,1,1.65.153,6.658,6.658,0,0,1,1.283.418V182.8a5.391,5.391,0,0,0-1.314-.5,5.739,5.739,0,0,0-1.294-.153,3.031,3.031,0,0,0-3.259,3.4,3.429,3.429,0,0,0,.907,2.6,3.522,3.522,0,0,0,2.536.865,5.136,5.136,0,0,0,1.192-.142,6.656,6.656,0,0,0,1.191-.407V190.6a4.627,4.627,0,0,1-1.294.52,7.808,7.808,0,0,1-1.884.193Z" transform="translate(-351.61 -179.807)" fill="#25303b"></path>
      <path id="Tracé_43" data-name="Tracé 43" d="M462.982,191.392a6.562,6.562,0,0,1-2.271-.377,4.738,4.738,0,0,1-2.893-2.872,6.729,6.729,0,0,1-.4-2.394,6.882,6.882,0,0,1,.387-2.373,5.416,5.416,0,0,1,1.131-1.894,5.122,5.122,0,0,1,1.823-1.253,6.332,6.332,0,0,1,2.445-.448,6.478,6.478,0,0,1,2.261.377,4.7,4.7,0,0,1,1.742,1.11,5.028,5.028,0,0,1,1.12,1.792,7.557,7.557,0,0,1,0,4.837,5.313,5.313,0,0,1-1.131,1.863,5.012,5.012,0,0,1-1.8,1.2,6.46,6.46,0,0,1-2.414.427Zm.1-2.22a2.511,2.511,0,0,0,2.118-.987,4.2,4.2,0,0,0,.754-2.617A4.015,4.015,0,0,0,465.2,183a2.5,2.5,0,0,0-2.078-.958,2.614,2.614,0,0,0-2.118.958,3.96,3.96,0,0,0-.794,2.607,4.015,4.015,0,0,0,.764,2.576A2.517,2.517,0,0,0,463.084,189.171Z" transform="translate(-446.848 -179.78)" fill="#25303b"></path>
      <path id="Tracé_44" data-name="Tracé 44" d="M607.183,191.134v-6.416a2.662,2.662,0,0,0-.549-1.925,2.031,2.031,0,0,0-1.487-.54,2.313,2.313,0,0,0-1.2.326,3.641,3.641,0,0,0-1.06,1.038v7.516h-2.77v-6.416a2.662,2.662,0,0,0-.55-1.925,2.031,2.031,0,0,0-1.487-.54,2.323,2.323,0,0,0-1.171.3,3.436,3.436,0,0,0-1.009.947v7.638h-2.77v-7.9l-.469-3.116h2.75l.285,1.447a5.183,5.183,0,0,1,1.436-1.263,3.908,3.908,0,0,1,2.027-.489,4.257,4.257,0,0,1,2.108.5,2.919,2.919,0,0,1,1.293,1.538,5.573,5.573,0,0,1,1.5-1.467,3.865,3.865,0,0,1,2.169-.571,3.432,3.432,0,0,1,3.728,3.87v7.455h-2.77Z" transform="translate(-569.072 -179.807)" fill="#25303b"></path>
      <path id="Tracé_45" data-name="Tracé 45" d="M808.14,182.971v7.9l.469,3.116h-2.77l-.285-1.447a5.5,5.5,0,0,1-1.569,1.253,4.353,4.353,0,0,1-2.078.478,3.855,3.855,0,0,1-2.719-.947,3.759,3.759,0,0,1-1.029-2.9V182.97h2.79v6.4a2.735,2.735,0,0,0,.54,1.935,1.973,1.973,0,0,0,1.476.55,2.9,2.9,0,0,0,1.253-.285,3.5,3.5,0,0,0,1.151-.937V182.97h2.77Z" transform="translate(-754.793 -182.663)" fill="#25303b"></path>
      <path id="Tracé_46" data-name="Tracé 46" d="M347.572,351.959h1.752l.427-3.259h2.261v3.259h3.076v2.1h-3.076v4.97a2.459,2.459,0,0,0,.407,1.548,1.475,1.475,0,0,0,1.181.448,4.256,4.256,0,0,0,.967-.112c.319-.074.607-.153.865-.234v2.058a3.127,3.127,0,0,1-.509.193,6.007,6.007,0,0,1-.652.153q-.347.061-.7.1a5.9,5.9,0,0,1-.662.04,5.279,5.279,0,0,1-1.721-.244,2.6,2.6,0,0,1-1.131-.733,2.776,2.776,0,0,1-.6-1.212,7.265,7.265,0,0,1-.173-1.68v-5.3H347.57v-2.1Z" transform="translate(-347.57 -332.442)" fill="#fff"></path>
      <path id="Tracé_47" data-name="Tracé 47" d="M446.85,393.589V382.57h2.77v11.019Z" transform="translate(-437.295 -363.053)" fill="#fff"></path>
      <path id="Tracé_48" data-name="Tracé 48" d="M492.752,351.959H494.5l.427-3.259h2.261v3.259h3.076v2.1h-3.076v4.97a2.459,2.459,0,0,0,.407,1.548,1.475,1.475,0,0,0,1.181.448,4.256,4.256,0,0,0,.967-.112c.319-.074.607-.153.865-.234v2.058a3.125,3.125,0,0,1-.509.193,6,6,0,0,1-.652.153q-.347.061-.7.1a5.9,5.9,0,0,1-.662.04,5.28,5.28,0,0,1-1.721-.244,2.6,2.6,0,0,1-1.131-.733,2.786,2.786,0,0,1-.6-1.212,7.263,7.263,0,0,1-.173-1.68v-5.3H492.75v-2.1Z" transform="translate(-478.777 -332.442)" fill="#fff"></path>
      <path id="Tracé_49" data-name="Tracé 49" d="M588.479,390.715v-7.9l-.469-3.116h2.75l.306,1.507a4.989,4.989,0,0,1,1.385-1.314,3.483,3.483,0,0,1,1.894-.5,4.272,4.272,0,0,1,.713.062v2.587a5.719,5.719,0,0,0-1.12-.122,3.32,3.32,0,0,0-2.689,1.3v7.5Z" transform="translate(-564.869 -360.179)" fill="#fff"></path>
      <path id="Tracé_50" data-name="Tracé 50" d="M672.869,391.119a5.457,5.457,0,0,1-4.084-1.447,5.578,5.578,0,0,1-1.416-4.074,7.571,7.571,0,0,1,.377-2.454,5.476,5.476,0,0,1,1.069-1.894,4.811,4.811,0,0,1,1.68-1.222,5.346,5.346,0,0,1,2.19-.438,4.47,4.47,0,0,1,3.86,1.65,8.012,8.012,0,0,1,1.212,4.786h-7.577a2.92,2.92,0,0,0,.987,2.058,3.534,3.534,0,0,0,2.251.652,7.735,7.735,0,0,0,2.007-.275,6.751,6.751,0,0,0,2.007-.927v2.241a6.986,6.986,0,0,1-2.088,1,8.681,8.681,0,0,1-2.474.346Zm-.2-9.39a2.324,2.324,0,0,0-1.62.6,3.109,3.109,0,0,0-.845,1.945h4.644a5.133,5.133,0,0,0-.173-1.038,2.414,2.414,0,0,0-.387-.8,1.7,1.7,0,0,0-.652-.52A2.3,2.3,0,0,0,672.665,381.73Z" transform="translate(-636.591 -360.36)" fill="#fff"></path>
      <path id="Tracé_51" data-name="Tracé 51" d="M795.981,391.14a9.274,9.274,0,0,1-2.036-.224,8.776,8.776,0,0,1-1.854-.631v-2.4a13.543,13.543,0,0,0,2.139.754,8.129,8.129,0,0,0,1.976.244,3.621,3.621,0,0,0,1.507-.265.889.889,0,0,0,.571-.856.716.716,0,0,0-.255-.58,2.02,2.02,0,0,0-.631-.346,4.7,4.7,0,0,0-.845-.2q-.469-.071-.9-.153a9.506,9.506,0,0,1-1.416-.377,4.115,4.115,0,0,1-1.151-.611,2.714,2.714,0,0,1-.774-.937,2.951,2.951,0,0,1-.285-1.354,3.03,3.03,0,0,1,.367-1.476,3.644,3.644,0,0,1,1-1.141,4.688,4.688,0,0,1,1.456-.733,5.884,5.884,0,0,1,1.741-.255,10.4,10.4,0,0,1,2.1.214,6.192,6.192,0,0,1,1.772.622v2.4a9.785,9.785,0,0,0-1.934-.764,6.784,6.784,0,0,0-1.711-.234,3.24,3.24,0,0,0-1.507.285.889.889,0,0,0-.529.815.712.712,0,0,0,.224.54,1.828,1.828,0,0,0,.56.356,4.236,4.236,0,0,0,.754.234q.417.091.825.153c.326.055.706.129,1.141.224a4.59,4.59,0,0,1,1.253.478,2.964,2.964,0,0,1,1.009.937,2.8,2.8,0,0,1,.407,1.6,2.963,2.963,0,0,1-.418,1.578,3.774,3.774,0,0,1-1.1,1.151,5.168,5.168,0,0,1-1.578.713,7.1,7.1,0,0,1-1.874.244Z" transform="translate(-749.253 -360.359)" fill="#fff"></path>
    </g>
    <g id="Groupe_12" data-name="Groupe 12" transform="translate(130.129 126.316)">
      <g id="Groupe_8" data-name="Groupe 8" transform="translate(3.966 6.903)">
        <path id="Tracé_52" data-name="Tracé 52" d="M270.552,339.029h.2v0a.494.494,0,0,1-.232-.44.487.487,0,0,1,.053-.229.3.3,0,0,1,.179-.145.473.473,0,0,1-.171-.18.51.51,0,0,1-.061-.246.738.738,0,0,1,.022-.186.394.394,0,0,1,.07-.142.319.319,0,0,1,.122-.092.445.445,0,0,1,.18-.033h1v.224h-.893a.649.649,0,0,0-.118.011.239.239,0,0,0-.1.039.2.2,0,0,0-.064.08.327.327,0,0,0-.024.133.352.352,0,0,0,.1.261.341.341,0,0,0,.253.1h.848v.224h-.893a.591.591,0,0,0-.121.012.255.255,0,0,0-.1.04.2.2,0,0,0-.064.078.311.311,0,0,0-.022.125.342.342,0,0,0,.039.167.359.359,0,0,0,.1.114.387.387,0,0,0,.115.064.317.317,0,0,0,.1.02h.848v.224h-1.362v-.211Z" transform="translate(-269.885 -329.063)" fill="#fff"></path>
        <path id="Tracé_53" data-name="Tracé 53" d="M270.962,322.4a.633.633,0,0,1-.226-.126.58.58,0,0,1-.151-.208.77.77,0,0,1,0-.571.606.606,0,0,1,.151-.207.643.643,0,0,1,.226-.126.909.909,0,0,1,.28-.042.9.9,0,0,1,.279.042.647.647,0,0,1,.225.126.572.572,0,0,1,.15.207.782.782,0,0,1,0,.571.567.567,0,0,1-.15.208.647.647,0,0,1-.225.126.9.9,0,0,1-.279.042A.908.908,0,0,1,270.962,322.4Zm.5-.228a.463.463,0,0,0,.161-.09.392.392,0,0,0,.1-.136.408.408,0,0,0,0-.329.392.392,0,0,0-.1-.136.449.449,0,0,0-.161-.09.677.677,0,0,0-.22-.033.667.667,0,0,0-.219.033.479.479,0,0,0-.162.09.383.383,0,0,0-.1.136.408.408,0,0,0,0,.329.383.383,0,0,0,.1.136.47.47,0,0,0,.162.09.755.755,0,0,0,.44,0Z" transform="translate(-269.894 -314.413)" fill="#fff"></path>
        <path id="Tracé_54" data-name="Tracé 54" d="M265.46,306.227h.7v0a.338.338,0,0,1-.165-.174.641.641,0,0,1-.051-.261.616.616,0,0,1,.058-.275.557.557,0,0,1,.157-.2.693.693,0,0,1,.228-.117.984.984,0,0,1,.549,0,.656.656,0,0,1,.225.115.534.534,0,0,1,.151.2.637.637,0,0,1,.055.272.7.7,0,0,1-.011.112.565.565,0,0,1-.035.122.467.467,0,0,1-.064.115.352.352,0,0,1-.1.09v0h.182v.224h-1.881v-.224Zm1-.8a.5.5,0,0,0-.162.076.387.387,0,0,0-.114.132.4.4,0,0,0-.042.189.4.4,0,0,0,.045.192.388.388,0,0,0,.117.129.471.471,0,0,0,.165.072.8.8,0,0,0,.38,0,.461.461,0,0,0,.165-.075.393.393,0,0,0,.115-.133.418.418,0,0,0,.043-.2.374.374,0,0,0-.045-.193.36.36,0,0,0-.118-.125.5.5,0,0,0-.168-.068.873.873,0,0,0-.2-.021.708.708,0,0,0-.186.025Z" transform="translate(-265.312 -299.989)" fill="#fff"></path>
        <path id="Tracé_55" data-name="Tracé 55" d="M265.724,300.464h-.274v-.224h.274Zm.245-.224h1.362v.224H265.97Z" transform="translate(-265.303 -295.542)" fill="#fff"></path>
        <path id="Tracé_56" data-name="Tracé 56" d="M265.46,294.45h1.881v.224H265.46Z" transform="translate(-265.312 -290.31)" fill="#fff"></path>
        <path id="Tracé_57" data-name="Tracé 57" d="M265.724,288.864h-.274v-.224h.274Zm.245-.224h1.362v.224H265.97Z" transform="translate(-265.303 -285.059)" fill="#fff"></path>
        <path id="Tracé_58" data-name="Tracé 58" d="M267.018,279.26h.2v.271h.845a.232.232,0,0,0,.064-.007.062.062,0,0,0,.037-.025.113.113,0,0,0,.017-.051.686.686,0,0,0,0-.086v-.1h.2v.171a.83.83,0,0,1-.012.149.213.213,0,0,1-.043.1.192.192,0,0,1-.089.057.511.511,0,0,1-.153.018h-.866v.232h-.2v-.232h-.408v-.224h.408Z" transform="translate(-266.351 -276.582)" fill="#fff"></path>
        <path id="Tracé_59" data-name="Tracé 59" d="M265.861,264.879a.62.62,0,0,1,.116.385.692.692,0,0,1-.053.283.554.554,0,0,1-.147.2.618.618,0,0,1-.226.122,1.121,1.121,0,0,1-.287.046.819.819,0,0,1-.285-.047.7.7,0,0,1-.224-.133.592.592,0,0,1-.147-.2.626.626,0,0,1-.053-.257.557.557,0,0,1,.075-.3.6.6,0,0,1,.191-.192.752.752,0,0,1,.253-.1,1.073,1.073,0,0,1,.261-.022v1.019a.524.524,0,0,0,.17-.021.384.384,0,0,0,.142-.076.375.375,0,0,0,.1-.135.458.458,0,0,0,.037-.193.39.39,0,0,0-.065-.233.323.323,0,0,0-.2-.12v-.221a.546.546,0,0,1,.346.2Zm-.875.054a.373.373,0,0,0-.122.082.389.389,0,0,0-.082.121.382.382,0,0,0-.03.154.413.413,0,0,0,.03.157.363.363,0,0,0,.083.12.4.4,0,0,0,.122.079.477.477,0,0,0,.149.035V264.9a.463.463,0,0,0-.15.036Zm-1.066.278.426.253V265.3l-.426-.372Z" transform="translate(-263.92 -263.387)" fill="#fff"></path>
        <path id="Tracé_60" data-name="Tracé 60" d="M271.628,252.328a.24.24,0,0,0,.082-.083.378.378,0,0,0,.043-.116.677.677,0,0,0,.013-.133.9.9,0,0,0-.008-.111.379.379,0,0,0-.029-.107.2.2,0,0,0-.062-.08.163.163,0,0,0-.1-.032.151.151,0,0,0-.132.065.566.566,0,0,0-.072.165c-.018.065-.035.138-.05.215a1.031,1.031,0,0,1-.064.215.448.448,0,0,1-.115.165.3.3,0,0,1-.2.065.325.325,0,0,1-.176-.046.382.382,0,0,1-.12-.118.53.53,0,0,1-.068-.164.776.776,0,0,1-.022-.18,1.059,1.059,0,0,1,.02-.214.5.5,0,0,1,.068-.172.362.362,0,0,1,.132-.12.506.506,0,0,1,.207-.053v.224a.217.217,0,0,0-.18.109.361.361,0,0,0-.038.1.516.516,0,0,0-.012.11.709.709,0,0,0,.008.1.309.309,0,0,0,.028.093.189.189,0,0,0,.053.068.135.135,0,0,0,.086.026.128.128,0,0,0,.1-.04.34.34,0,0,0,.064-.1.966.966,0,0,0,.042-.142c.012-.053.023-.1.036-.158a1.607,1.607,0,0,1,.045-.165.5.5,0,0,1,.07-.142.343.343,0,0,1,.11-.1.327.327,0,0,1,.164-.038.381.381,0,0,1,.205.051.4.4,0,0,1,.132.135.565.565,0,0,1,.07.187,1.086,1.086,0,0,1,.02.207.924.924,0,0,1-.024.216.516.516,0,0,1-.078.182.384.384,0,0,1-.142.126.493.493,0,0,1-.215.053v-.224a.255.255,0,0,0,.125-.035Z" transform="translate(-269.903 -251.43)" fill="#fff"></path>
      </g>
      <g id="Groupe_9" data-name="Groupe 9" transform="translate(0 6.858)">
        <path id="Tracé_61" data-name="Tracé 61" d="M223.4,481.072v.595l-.692-.52v-.706l.692-.521v.595l-.372.279.372.279Zm.261.116v-.79h2.412v.79Z" transform="translate(-222.71 -457.885)" fill="#fff"></path>
        <rect id="Rectangle_6" data-name="Rectangle 6" width="3.318" height="0.79" transform="translate(0.046 21.34)" fill="#fff"></rect>
        <path id="Tracé_62" data-name="Tracé 62" d="M233.349,445.662a.515.515,0,0,0,.548-.54.471.471,0,0,0-.266-.45v-.739a1.142,1.142,0,0,1,.8,1.2,1.212,1.212,0,0,1-1.282,1.319,1.287,1.287,0,1,1,.2-2.561v1.771m-.441-.981a.488.488,0,0,0-.493.47.521.521,0,0,0,.493.511Z" transform="translate(-230.997 -425.32)" fill="#fff"></path>
        <path id="Tracé_63" data-name="Tracé 63" d="M233.1,424v.312h-.256v.008a.639.639,0,0,1,.3.6.887.887,0,0,1-1,.872.875.875,0,0,1-.986-.865.726.726,0,0,1,.3-.611v-.008h-.974V424h2.616m-.231.88c0-.418-.358-.578-.713-.578-.374,0-.718.168-.718.6s.362.568.732.568.7-.184.7-.586" transform="translate(-229.741 -407.347)" fill="#fff"></path>
        <path id="Tracé_64" data-name="Tracé 64" d="M238.867,403.838a.762.762,0,0,1,.645.808c0,.605-.418.891-1,.91a.912.912,0,0,1-.986-.891c0-.67.627-.876,1.085-.857v1.418a.557.557,0,0,0,.622-.59.458.458,0,0,0-.37-.491v-.308m-.527.3a.544.544,0,0,0-.534.546.538.538,0,0,0,.534.542Z" transform="translate(-236.104 -389.097)" fill="#fff"></path>
        <path id="Tracé_65" data-name="Tracé 65" d="M223.19,378.775V376.33h.692v1.58h.679v-1.367h.669v1.367h1.278v.864Z" transform="translate(-223.144 -364.265)" fill="#fff"></path>
        <path id="Tracé_66" data-name="Tracé 66" d="M232.157,358.847v-.767h.423v-.009a.728.728,0,0,1-.47-.726.883.883,0,0,1,.019-.186h.719a1.106,1.106,0,0,0-.046.3.556.556,0,0,0,.573.6h1.193v.789h-2.412Z" transform="translate(-231.205 -346.94)" fill="#fff"></path>
        <path id="Tracé_67" data-name="Tracé 67" d="M232.683,335a.748.748,0,0,1-.647-.375,1.606,1.606,0,0,1-.167-.767c0-.572.126-1.125.808-1.125h1.055a1.4,1.4,0,0,0,.618-.093v.795a.922.922,0,0,1-.228.046,1.087,1.087,0,0,1,.3.795c0,.46-.232.822-.73.822-.784,0-.724-.855-.835-1.4-.028-.135-.074-.209-.223-.209-.181,0-.25.217-.25.38a.353.353,0,0,0,.3.395V335m1.25-1.022c0-.375-.214-.5-.711-.483a2.233,2.233,0,0,1,.13.488c.041.176.116.325.307.325s.274-.152.274-.33" transform="translate(-230.988 -324.779)" fill="#fff"></path>
        <path id="Tracé_68" data-name="Tracé 68" d="M231.94,308.053v-.767h.33v-.011a.909.909,0,0,1-.4-.757c0-.8.586-.869.934-.869h1.548v.789h-1.166c-.33,0-.664-.037-.664.4,0,.3.25.427.515.427h1.316v.791h-2.412Z" transform="translate(-230.988 -300.387)" fill="#fff"></path>
        <path id="Tracé_69" data-name="Tracé 69" d="M232.833,278.879a.373.373,0,0,0-.348.386c0,.442.376.511.711.511.312,0,.631-.135.631-.469a.422.422,0,0,0-.413-.45v-.767a1.129,1.129,0,0,1,1.016,1.213,1.2,1.2,0,0,1-1.236,1.265,1.236,1.236,0,0,1-1.315-1.265,1.081,1.081,0,0,1,.953-1.19Z" transform="translate(-230.997 -275.48)" fill="#fff"></path>
        <path id="Tracé_70" data-name="Tracé 70" d="M233.349,252.74a.515.515,0,0,0,.548-.54.469.469,0,0,0-.266-.449v-.74a1.143,1.143,0,0,1,.8,1.2,1.213,1.213,0,0,1-1.282,1.32,1.267,1.267,0,0,1-1.268-1.3,1.253,1.253,0,0,1,1.469-1.26v1.77m-.441-.981a.488.488,0,0,0-.493.47.521.521,0,0,0,.493.511Z" transform="translate(-230.997 -250.967)" fill="#fff"></path>
      </g>
      <g id="Groupe_11" data-name="Groupe 11" transform="translate(0.046 0)">
        <rect id="Rectangle_7" data-name="Rectangle 7" width="5.949" height="5.949" rx="2.974" fill="#fff"></rect>
        <g id="Groupe_10" data-name="Groupe 10" transform="translate(1.173 0.733)">
          <path id="Tracé_71" data-name="Tracé 71" d="M249.058,188.115a.493.493,0,1,1-.179-.753.555.555,0,0,1,.179.753" transform="translate(-246.894 -187.326)" fill="#65b5e6"></path>
          <path id="Tracé_72" data-name="Tracé 72" d="M237.937,212.885c-.512-.711-1.137-.348-1.558.222-.332.449-.614.841-.962,1.317-.081.111-.018.15.094.082a1.119,1.119,0,0,0,.327-.312c.143-.2.5-.686.729-1a.405.405,0,0,1,.711.038c.241.333.538.75.8,1.111.183.25.734.212.975.194.043,0,.057-.035.036-.064-.151-.208-.678-.933-1.153-1.593Z" transform="translate(-235.379 -210.07)" fill="#65b5e6"></path>
        </g>
        <path id="Tracé_73" data-name="Tracé 73" d="M238.8,198.19a3.7,3.7,0,0,1-1.547.418,2.344,2.344,0,0,0-1.562.766c-.126.135-.182.253.015.153a3.7,3.7,0,0,1,1.547-.418,2.344,2.344,0,0,0,1.562-.766C238.939,198.208,239,198.089,238.8,198.19Z" transform="translate(-234.383 -196.377)" fill="#65b5e6"></path>
      </g>
    </g>
    <g id="Groupe_13" data-name="Groupe 13" transform="translate(126.168 144.126)">
      <path id="Tracé_74" data-name="Tracé 74" d="M184.559,480.677a1.111,1.111,0,0,1-.051.342.713.713,0,0,1-.159.273.738.738,0,0,1-.273.183,1.063,1.063,0,0,1-.4.066h-1.29v-.261h1.268a.694.694,0,0,0,.5-.158.606.606,0,0,0,.166-.461.617.617,0,0,0-.049-.258.447.447,0,0,0-.142-.176.632.632,0,0,0-.224-.1,1.261,1.261,0,0,0-.3-.033H182.39v-.264H183.6a1.2,1.2,0,0,1,.418.066.843.843,0,0,1,.3.182.75.75,0,0,1,.18.27.89.89,0,0,1,.061.327Z" transform="translate(-182.309 -468.755)" fill="#fff"></path>
      <path id="Tracé_75" data-name="Tracé 75" d="M189.962,463.084H188.9l-.456.068V462.9l.213-.039a.917.917,0,0,1-.183-.246.657.657,0,0,1-.072-.3.585.585,0,0,1,.042-.233.418.418,0,0,1,.117-.159.5.5,0,0,1,.179-.092.813.813,0,0,1,.228-.03h1v.246h-.941a.576.576,0,0,0-.193.027.312.312,0,0,0-.12.072.264.264,0,0,0-.063.108.447.447,0,0,0-.018.13.566.566,0,0,0,.054.231.546.546,0,0,0,.2.222h1.087v.246Z" transform="translate(-187.741 -452.461)" fill="#fff"></path>
      <path id="Tracé_76" data-name="Tracé 76" d="M189.991,444.963a.663.663,0,0,1-.209.533.838.838,0,0,1-.566.179,1.082,1.082,0,0,1-.329-.048.784.784,0,0,1-.261-.138.645.645,0,0,1-.173-.219.678.678,0,0,1-.063-.294.654.654,0,0,1,.06-.288.51.51,0,0,1,.17-.2.781.781,0,0,1,.268-.114,1.526,1.526,0,0,1,.353-.037v1.083a.59.59,0,0,0,.4-.139.484.484,0,0,0,.126-.357.773.773,0,0,0-.051-.279,1.2,1.2,0,0,0-.15-.268h.221a1.1,1.1,0,0,1,.146.264.888.888,0,0,1,.053.321Zm-1.384.017a.55.55,0,0,0,.022.156.338.338,0,0,0,.075.13.444.444,0,0,0,.139.1.688.688,0,0,0,.211.054V444.6h-.034a.76.76,0,0,0-.16.034.477.477,0,0,0-.132.069.311.311,0,0,0-.09.112.378.378,0,0,0-.033.162Z" transform="translate(-187.732 -436.681)" fill="#fff"></path>
      <path id="Tracé_77" data-name="Tracé 77" d="M182.252,421.214v-.224h-.193a.766.766,0,0,1-.243-.033.383.383,0,0,1-.156-.092.352.352,0,0,1-.084-.143.613.613,0,0,1-.026-.183.7.7,0,0,1,.037-.242h.21a.57.57,0,0,0-.036.126.673.673,0,0,0-.007.092.257.257,0,0,0,.051.166.228.228,0,0,0,.187.064h.258v-.369h.2v.369h1.316v.244h-1.316v.224h-.2Zm-.309-1.126h-.318v-.278h.318Zm1.83-.017h-1.52v-.246h1.52Z" transform="translate(-181.55 -414.512)" fill="#fff"></path>
      <path id="Tracé_78" data-name="Tracé 78" d="M181.71,412.986v-.246h2.206v.246Z" transform="translate(-181.695 -408.122)" fill="#fff"></path>
      <path id="Tracé_79" data-name="Tracé 79" d="M182.648,405.648h-.318v-.278h.318Zm1.83-.017h-1.52v-.246h1.52Z" transform="translate(-182.255 -401.462)" fill="#fff"></path>
      <path id="Tracé_80" data-name="Tracé 80" d="M189.784,389.3a.71.71,0,0,1,.16.237.757.757,0,0,1,.058.3.458.458,0,0,1-.117.333.417.417,0,0,1-.314.12.4.4,0,0,1-.36-.167.824.824,0,0,1-.111-.456,1.23,1.23,0,0,1,.013-.183c.009-.058.018-.111.03-.16h-.167a.462.462,0,0,0-.17.027.274.274,0,0,0-.109.074.293.293,0,0,0-.06.109.467.467,0,0,0-.018.136.736.736,0,0,0,.014.138,1.1,1.1,0,0,0,.038.147.86.86,0,0,0,.058.136.519.519,0,0,0,.071.106h-.241a.8.8,0,0,1-.116-.251,1.076,1.076,0,0,1-.042-.3.849.849,0,0,1,.029-.23.411.411,0,0,1,.272-.29.834.834,0,0,1,.275-.039h.65l.338-.042v.238l-.179.023Zm.014.459a.638.638,0,0,0-.047-.224.541.541,0,0,0-.146-.216h-.275a1.329,1.329,0,0,0-.033.15,1.02,1.02,0,0,0-.013.165.538.538,0,0,0,.069.314.238.238,0,0,0,.2.092.208.208,0,0,0,.183-.082.337.337,0,0,0,.058-.2Z" transform="translate(-187.741 -386.703)" fill="#fff"></path>
      <path id="Tracé_81" data-name="Tracé 81" d="M181.71,382.616v-.246h2.206v.246Z" transform="translate(-181.695 -380.675)" fill="#fff"></path>
      <path id="Tracé_82" data-name="Tracé 82" d="M189.991,365.383a.663.663,0,0,1-.209.533.838.838,0,0,1-.566.179,1.084,1.084,0,0,1-.329-.048.786.786,0,0,1-.261-.138.646.646,0,0,1-.173-.219.664.664,0,0,1-.063-.295.654.654,0,0,1,.06-.288.511.511,0,0,1,.17-.2.781.781,0,0,1,.268-.114,1.58,1.58,0,0,1,.353-.037v1.083a.59.59,0,0,0,.4-.139.484.484,0,0,0,.126-.357.772.772,0,0,0-.051-.279,1.2,1.2,0,0,0-.15-.268h.221a1.1,1.1,0,0,1,.146.264.888.888,0,0,1,.053.32Zm-1.384.017a.551.551,0,0,0,.022.156.338.338,0,0,0,.075.13.443.443,0,0,0,.139.1.687.687,0,0,0,.211.054v-.813h-.034a.758.758,0,0,0-.16.034.477.477,0,0,0-.132.069.311.311,0,0,0-.09.112.378.378,0,0,0-.033.162Z" transform="translate(-187.732 -364.76)" fill="#fff"></path>
    </g>
    <rect id="Rectangle_8" data-name="Rectangle 8" width="0.218" height="30.64" transform="translate(139.11 126.316)" fill="#fff"></rect>
    <circle id="Ellipse_2" data-name="Ellipse 2" cx="1.491" cy="1.491" r="1.491" transform="translate(151.595 141.89)" fill="#25303b"></circle>
  </g>
</svg>
